<?xml version="1.0" standalone="no"?>
<!DOCTYPE svg PUBLIC "-//W3C//DTD SVG 20010904//EN"
 "http://www.w3.org/TR/2001/REC-SVG-20010904/DTD/svg10.dtd">
<svg version="1.0" xmlns="http://www.w3.org/2000/svg"
 width="512.000000pt" height="512.000000pt" viewBox="0 0 512.000000 512.000000"
 preserveAspectRatio="xMidYMid meet">

<g transform="translate(0.000000,512.000000) scale(0.100000,-0.100000)"
fill="#E15969" stroke="none">
<path d="M2384 5110 c-950 -64 -1797 -665 -2172 -1540 -210 -489 -262 -1048
-146 -1570 214 -958 977 -1721 1934 -1934 361 -80 760 -80 1117 0 965 215
1722 972 1937 1937 80 357 80 757 0 1117 -150 673 -575 1264 -1170 1625 -352
215 -739 336 -1164 365 -158 11 -173 11 -336 0z m1018 -1058 c106 -52 176
-144 198 -261 14 -76 12 -507 -3 -550 -17 -48 -58 -76 -113 -76 -36 0 -49 6
-76 33 l-33 32 -5 268 c-4 233 -7 271 -23 295 -39 59 -11 57 -772 55 l-697 -3
354 -204 c380 -218 428 -254 476 -351 l27 -55 3 -822 3 -823 267 0 c287 0 298
2 336 53 20 26 21 45 26 265 5 256 8 270 60 297 41 21 82 19 121 -8 55 -37 61
-70 57 -332 -4 -210 -6 -235 -27 -287 -31 -79 -98 -150 -179 -190 l-67 -33
-296 -3 -297 -3 -4 -127 c-4 -112 -7 -133 -31 -183 -73 -152 -258 -239 -412
-194 -79 22 -824 452 -883 509 -54 51 -87 113 -101 191 -14 76 -15 2153 -1
2239 23 142 132 263 267 295 21 5 416 9 898 8 l860 -2 67 -33z m406 -892 c9 0
101 -84 204 -187 134 -133 191 -197 197 -220 18 -64 2 -88 -196 -285 -156
-155 -194 -188 -224 -193 -83 -15 -156 67 -134 152 3 14 38 59 77 100 l71 73
-437 0 c-362 0 -442 2 -465 14 -83 43 -81 170 3 210 30 14 87 16 467 16 l433
0 -66 68 c-74 75 -88 98 -88 140 0 59 80 132 128 116 8 -2 21 -4 30 -4z"/>
</g>
</svg>
